<svg id="Layer_1" data-name="Layer 1" xmlns="http://www.w3.org/2000/svg" viewBox="0 0 142.96 105.16"><defs><style>.cls-1,.cls-2{fill:#282560;}.cls-1{fill-rule:evenodd;}</style></defs><title>cnh logo 2017</title><path class="cls-1" d="M203.14,212.74c-.53-2.48-1-5-1.56-7.43a.55.55,0,0,0-.4.09,31.48,31.48,0,0,1-2.28,6.15,4.83,4.83,0,0,1-1.27,1.63.54.54,0,0,0,0,.2v1.05a3.38,3.38,0,0,0-.56.2c-.93,3-.93,3-1.38,4.24l-.51.13c-.2.54-.39,1.11-.58,1.67-.11.09-.11.09-.69.31v1.45a1,1,0,0,0-.27.09,13.76,13.76,0,0,0-.31,1.81c-.4,0-.79,0-1.19,0A1.38,1.38,0,0,1,192,224c-.27-2.05-.45-4-.55-5.91,0-.31,0-.62-.07-.92v-2.8c0-.22,0-.43,0-.63,0-.38,0-.75,0-1.11s0-.63.07-.94a1.09,1.09,0,0,1,.26,0l2-10.59a29.56,29.56,0,0,0,2.16-5.91c.76-1.7,1.76-3.36,2.43-5a32.9,32.9,0,0,0,1.3-4.37l.06-.61c0-.28,0-.55,0-.82s0-.58,0-.87a3.18,3.18,0,0,0-.48-1.63,16.4,16.4,0,0,1-2.06-5c-.07-.67-.12-1.34-.17-2-4-2.32-4-2.32-5.81-3.46a18.83,18.83,0,0,1-5.3-4.9c-.86-2.56-2.57-2.79-4.75-3.7a11,11,0,0,0-2.19.09H178c-1-.14-1.41-.29-1.86-1a12,12,0,0,0-2.31-.91,28,28,0,0,0-4.46,3.56c-1.54.94-3.41,1.47-4.66,2.72-2.72,1.7-6.09,2.26-9,3.12a9.84,9.84,0,0,1,.44,2.26v.86c0,.81,0,1.65,0,2.48a4.33,4.33,0,0,1,.35,1v1.09c0,.35-.08.69-.1,1-1,4.71-1,4.71-1.23,6.33a1.67,1.67,0,0,0,0,.29c1,1.48,2.17,3.15,1.39,5.11a.06.06,0,0,0,0,.05c0,.86,0,1.73,0,2.6v0a31.19,31.19,0,0,1-.46,4.14h.41v1.21a.93.93,0,0,0,0,.22,4,4,0,0,0,0,1.2,1.26,1.26,0,0,0,0,.27v.67c0,.37,0,.75,0,1.12s0,.73.05,1.1c0,.77,0,1.55,0,2.35a2.38,2.38,0,0,0-1.1,1.73h.3v.56c.24,0,.85-.66,1.05-.84a7.2,7.2,0,0,1-.29,1.82c-1.32.85-1.62.86-2.07,2.48a46.14,46.14,0,0,1-1.68,6,9.56,9.56,0,0,1-.75,1.89,2.32,2.32,0,0,0-1.09.78c-.07,0-.07,0-.83,1.43-.49.63-1.61.92-1.82,1.56l-.32.07c.07-1.56.14-3.12.22-4.66q0-.41.12-.78h.29c0-2.56.87-4.93.64-7.43h.49V210h-.49c.05-.32.11-.65.16-.95h.38a.15.15,0,0,1,.1,0h.06v-.91h-.06s0,0-.06,0c-1.85-.54-1.49-1.31-1.69-3a1.23,1.23,0,0,0-.27,0c0,.14-.05.29-.08.45l-.28.06a6,6,0,0,1-1.56,2.34,2.68,2.68,0,0,0,0,.41c-.8.22-1.63,2.31-2.18,3.18s-1.27,1.51-1.32,1.63a2.81,2.81,0,0,0-.94.87c-.49.24-.69.82-1,1.36-.27.27-.52.54-.78.83a18.53,18.53,0,0,0-3.69,4.29c-.55,1.1-.64,1.52-.73,1.68h-.26V221.1a25.25,25.25,0,0,1,1.42-5.95,12.22,12.22,0,0,0,1-2.21,26,26,0,0,1,1.63-2.83c1.49-4.28,3.15-8.58,4.29-12.85.86-2.89,1.75-5.81,2.4-8.58a10.57,10.57,0,0,0,.34-2.36A3.53,3.53,0,0,1,145,184v-1.12a41.79,41.79,0,0,1,.83-4.76c0-1,0-2,0-3-.48-.49-1.75.31-2.19.47-3.12,1.48-5.86,3.88-8.76,5.57-.23.52-.9,2.33-1.48,2.59-.53,1.69-1,2.27-2.69,2.7-.07.69-.12,1.38-.18,2.09-2.86-.63-2.86-1.82-3.1-4.23.29-.89,1.25-.92,2.1-1.07.31-.49.33-.56.85-.72l.1,0,.9,0a22.68,22.68,0,0,0,4.19-4.79l1.63-1.58c1.37-1.7,2.81-3.33,4.12-5,1.27-1.31,2.81-2.6,3.55-4.3,0-.26,0-.49,0-.73a28.94,28.94,0,0,0-3.35-.38c-2.34,1.11-4,3.59-6.24,4.35a1.23,1.23,0,0,1-.8.59,9.35,9.35,0,0,1,1.67-4.85,22.26,22.26,0,0,1,3.37-3.5c0-.12,0-.25.07-.38l.52-.16c2-2,4.85-4.9,7.9-5a24.59,24.59,0,0,0,3,.74c1.31,1.17,3,2.72,2.12,4.83a10.56,10.56,0,0,1-1.75,1.72c-.2.91,1.25,2.27,2.32,2.52a3.3,3.3,0,0,1,.47,0c5.53-2.17,11.2-4.36,16.64-6.92a17.14,17.14,0,0,0,2.62-1.76c0-.49-.06-1-.08-1.45v-.91c.29-1.28.87-1.25,2.22-1.49h1.1c1,.42,1.73,1,3,.91.29,0,.6,0,.91,0a2.25,2.25,0,0,1-.71,1.21c.36,1.85,2.28,2.07,3.25,3.83a6.89,6.89,0,0,1,3,3c2.6,2.17,2.8,2.26,3,2.44,1.41.42,3.12,1.07,4.69,1.63l4.71,3.09c.19.05.39.13.59.2a12.87,12.87,0,0,0-.31-3.39c-.38-.15-.76-.28-1.13-.4-.07-.24-.14-.46-.21-.67-.51-.17-.51-.17-.55-.24,0-.41,0-.83-.05-1.23l-.76-.27c-.16-1.16-.2-1.09-1.09-1.15-.09-.28-.17-.58-.24-.85-.52-.94-1.56-1.79-1.67-2.67h.31a1.77,1.77,0,0,0,.08.31l.47.13a19.31,19.31,0,0,0-.24-3h1.83c.35,0,.69,0,1,.09h1.27c.25,0,.51,0,.77,0h.19c.6.25,9.08,2,8.7,4.68-.43.49-.89.8-1,1.58.2.58.74,2.1.45,2.77a4.13,4.13,0,0,1-1.89,1.21c-.08.35-.18.7-.26,1a4.34,4.34,0,0,0-.57.29c0,.58-.07,1.18-.09,1.78a22.67,22.67,0,0,1,2.39.85c0,.09.06.2.09.31l2.69,1a32.91,32.91,0,0,0,5,2.6,25.49,25.49,0,0,0,5.16,1,11.48,11.48,0,0,0-1.39-4.55c-1-.58-1.18-2.78-1.18-3.77a2.62,2.62,0,0,1,2.83-1.8c3.1,1.62,7,2,9.5,4.82.11.26.07.58.58.68a11.42,11.42,0,0,1,.78,2.55,8.81,8.81,0,0,1-1.6.4h-1l-2.6-.4c0,.26.11.37.44.75a4.72,4.72,0,0,0,0,1.59c3.92.15,8.2-.34,12.28-.56,1.62-1.25,2.85-2.28,5-2.7a3.79,3.79,0,0,1,2,2.12,9.1,9.1,0,0,1,1.75,1.56,9.83,9.83,0,0,1,.72,3.23,55.26,55.26,0,0,0,3.08,6.16c1.07.49,2.83-.49,3.85-1a2.7,2.7,0,0,0-1.62-2.92c-.7-.71-.18-2.43-1.27-2.89,0-.18,0-.36,0-.52a28.6,28.6,0,0,0,3.1-2.85,4.55,4.55,0,0,1,4.48,3.26c.16,1.65-.56,3.16-.67,4.86,1.87-.69,4.24-5.14,4.95-7,.09-.65.2-1.3.31-1.95,2-2.22,2.81-4.9,6.06-5.32.12.64.27,1.27.41,1.9a13,13,0,0,1-1.35,2.69c-.69.45-.73.91-.75,1.81,0,.33,0,.67,0,1a10.94,10.94,0,0,0-2.32.51c-1,.65-1.14,1.25-1.61,2.43-.82,2.44-1.4,6.54-3.47,8.46a14.26,14.26,0,0,1-.59,2.38c-.69,1.25-.56,1.54-.3,3,.39,1,.39,1,.44,1a6,6,0,0,0,.51,1.23c.21.52.2.87.82,1.31a53.52,53.52,0,0,0,3.72,9.7,3,3,0,0,1,.06,1.58,1.29,1.29,0,0,0-.25,0c0-.09,0-.18-.05-.25-.44,0-.86-.06-1.27-.08h-.31V209a28,28,0,0,0,.9,4,1.84,1.84,0,0,1,.64,1c1,.47,1.18.7,1.18,2a5.23,5.23,0,0,0-.54-.12c-2.13-1.09-2.85-3.67-4.43-5.06l-.49-.71a3.64,3.64,0,0,0-1.69-1.56c-.34-1.16-1.36-3-2.34-3.28q-.08.9-.12,1.8v1.45a70.78,70.78,0,0,0,1.16,10.37c-1.11.23-1.11.23-1.38,1.27a3,3,0,0,1-1,0,32.4,32.4,0,0,0-1.3-3.34c-.53-2.64-1.06-5.27-1.57-7.9a17.81,17.81,0,0,1-.31-2.6c0-.27,0-.54,0-.81v-1.81c0-.28,0-.55,0-.82v-1.27c.18-.18.24-5.91.24-6.35l-.25,0c-.27-.89-.55-1.78-.82-2.67a24.39,24.39,0,0,0-4.5-7.62,10.36,10.36,0,0,0-1.11-2.1,1,1,0,0,0-.28-.07c-1-1.62-2.42-3.1-3-4.66a26.27,26.27,0,0,1-2.92.61,2.14,2.14,0,0,0-.12.28,24.61,24.61,0,0,1-3-.2c-7.76,1.27-7.76,1.27-8.81,1.48-1.47.44-.45,2.47-.1,3.59,0,.27.07.55.13.84v.78a4.33,4.33,0,0,1-.58,1.52c-.13.74-.23,1.49-.34,2.23a.33.33,0,0,0,0,.15c-.11,1.1.13,1.41-.78,1.77a3.87,3.87,0,0,0,.46,1.6,2.15,2.15,0,0,1,.32.13,3.18,3.18,0,0,0,0,.4,1.73,1.73,0,0,1,.32,0,28.87,28.87,0,0,0,2.34,4.88,48.64,48.64,0,0,1,.87,6.13,2.34,2.34,0,0,0,1,1.83c.58,1.11,1.25,2.38,1.81,3.72a45.61,45.61,0,0,1,2.29,9.5,3.93,3.93,0,0,1,.43.18c0,.27,0,1.55-.42,1.73l-.8-.51c-2.58-2.58-3.55-5.95-5.29-8.82a16.73,16.73,0,0,0-2.07-4.71c-.73-1.42-1.5-2.81-2-4.13-.14-.51-.27-1-.4-1.51l-.31-.06a3.91,3.91,0,0,0-.23-.56c-.15-.32-.27-.65-.4-1h-.42c-.09.56-.16,1.13-.24,1.69a1.45,1.45,0,0,0-.09.22c-.81.58-.77.92-.85,2,.08.78.16,1.56.26,2.33a3.25,3.25,0,0,1,.16.95l-.33.12a.08.08,0,0,0-.07,0c0,.22,0,.44,0,.66s0,.65,0,1,0,.59,0,.87v.68c0,.59,0,1.21,0,1.83,0,.45,0,.92,0,1.4a14.79,14.79,0,0,1,.52,2.75c0,1,0,1,.06,1a2.37,2.37,0,0,1,.34.15c0,.46,0,.95.05,1.44a4.06,4.06,0,0,1,.57,2.92,5.22,5.22,0,0,0-.66,2.61c-.19-.05-.38-.11-.56-.14-.36-.78-.72-1.56-1.06-2.32a1.33,1.33,0,0,0-.28,0c0,.35,0,.72-.05,1.08l-.82-.45c-1.94-4.36-2.94-8.91-4.24-13.24a73.8,73.8,0,0,1-1.38-11.64v-1.28c.05-.76.11-1.52.16-2.28a25.3,25.3,0,0,0,.73-2.81,1.49,1.49,0,0,1,.25-.07c0-.33,0-.64.06-.94s.23-.77.36-1.15a2.48,2.48,0,0,1,0-.27c0-.36,0-.73,0-1.08.13-2.24.62-7.19.63-8.17a29.12,29.12,0,0,0-4.37-1.41c0-.11-.07-.22-.1-.33-2-.22-4.07-.67-5.84-.14a1.41,1.41,0,0,0-.66.76l1.35,1.09c0,.14,0,.14-.08,1.07h-.08v1.37h.08c.2,2.63.8,5.66-.12,8.38l-.06.78a22.33,22.33,0,0,0,.26,6.39c1,3.06,1.17,6.65,1.59,10,.39,1.94.76,3.88,1.14,5.82.2,1.56.41,3.14.48,4.8,0,.37.05.73.09,1.09a9.48,9.48,0,0,1-.35,3.52c.06.56.29,1.18.35,1.92-.91-.1-1.66-1.36-1.85-2l-.35-.09c-1.7-2.88-3.18-5.91-4.95-8.41-.16-.56-.33-1.13-.47-1.69Z" transform="translate(-127.35 -154.09)"/><path class="cls-2" d="M137.05,243.86a9.43,9.43,0,0,1-2.57.33,7,7,0,0,1-7.13-7.14,7.1,7.1,0,0,1,7.45-7.39,7,7,0,0,1,2,.28l.73,4.33a5.08,5.08,0,0,0-2.27-.52c-2,0-3.48,1.13-3.48,3.17a3.21,3.21,0,0,0,3.4,3.18,4.47,4.47,0,0,0,2.49-.65Z" transform="translate(-127.35 -154.09)"/><path class="cls-2" d="M153.49,236.92a7.45,7.45,0,1,1-7.44-7.26A7.14,7.14,0,0,1,153.49,236.92Zm-10.5,0a3.06,3.06,0,1,0,3.06-3.17A3.05,3.05,0,0,0,143,236.92Z" transform="translate(-127.35 -154.09)"/><path class="cls-2" d="M154.84,243.86V230l4.39-.32v10.12H164l-.93,4.08Z" transform="translate(-127.35 -154.09)"/><path class="cls-2" d="M165,243.86V230l4.39-.32v10.12h4.8l-.93,4.08Z" transform="translate(-127.35 -154.09)"/><path class="cls-2" d="M179.7,229.66v14.2l-4.39.33V230Z" transform="translate(-127.35 -154.09)"/><path class="cls-2" d="M181.9,230h4.25l4,6.64h0V230l4.21-.32v14.2H190.3l-4.15-6.69h0v6.69l-4.21.33Z" transform="translate(-127.35 -154.09)"/><path class="cls-2" d="M205.77,234.66a3.76,3.76,0,0,0-2.47-.91,3,3,0,0,0-3,3.28,2.79,2.79,0,0,0,2.77,3.07,4.79,4.79,0,0,0,.83-.06v-1.32h-2.08l.77-3.15h5.56V243a10.78,10.78,0,0,1-5.14,1.2c-4.31,0-7.1-3.24-7.1-7.49a7.27,7.27,0,0,1,7.5-7,8.06,8.06,0,0,1,4.68,1.54Z" transform="translate(-127.35 -154.09)"/><path class="cls-2" d="M219.08,243.86l-1.7-7.34h0l-1.64,7.34h-3.92L208.7,230l4.33-.32,1.52,7h0L216,230h2.72l1.53,6.74h0l1.52-7.06,4.25.32L223,243.86Z" transform="translate(-127.35 -154.09)"/><path class="cls-2" d="M241.13,236.92a7.45,7.45,0,1,1-7.45-7.26A7.15,7.15,0,0,1,241.13,236.92Zm-10.5,0a3.06,3.06,0,1,0,3.05-3.17A3.05,3.05,0,0,0,230.63,236.92Z" transform="translate(-127.35 -154.09)"/><path class="cls-2" d="M256.86,236.92a7.45,7.45,0,1,1-7.44-7.26A7.14,7.14,0,0,1,256.86,236.92Zm-10.5,0a3.06,3.06,0,1,0,3.06-3.17A3.06,3.06,0,0,0,246.36,236.92Z" transform="translate(-127.35 -154.09)"/><path class="cls-2" d="M258.31,230h4.5c5.76,0,7.5,4.29,7.5,6.8,0,4.15-2.67,7.08-7.1,7.08h-4.9Zm4.39,9.92h.53a2.65,2.65,0,0,0,2.69-2.77A3,3,0,0,0,262.7,234Z" transform="translate(-127.35 -154.09)"/><path class="cls-2" d="M129.8,256.86v-9.92h0l6.12,6.67v-6.23l1.36-.22v9.76h0l-6.12-6.68v6.46Z" transform="translate(-127.35 -154.09)"/><path class="cls-2" d="M140.38,254.53a2.24,2.24,0,0,0,1.94,1.14,4.61,4.61,0,0,0,2.61-1.23l.26,1.41a4.69,4.69,0,0,1-2.79,1.07,3.68,3.68,0,0,1-3.74-3.94,3.6,3.6,0,0,1,3.52-3.54,3.4,3.4,0,0,1,3.15,1.93Zm3.12-3.38a1.56,1.56,0,0,0-1.23-.46,2.26,2.26,0,0,0-2.27,2.68Z" transform="translate(-127.35 -154.09)"/><path class="cls-2" d="M147.45,246.76l.89,1.05-.86,1.05-.89-1.05Zm-.65,10.16v-7.26l1.33-.22v7.26Z" transform="translate(-127.35 -154.09)"/><path class="cls-2" d="M150.34,256.81a2.26,2.26,0,0,0,2,1.26,1.68,1.68,0,0,0,1.87-1.57,1.72,1.72,0,0,0-1.87-1.78,3.06,3.06,0,0,0-1.71.52l.25-1a2.22,2.22,0,0,1-1.53-2.32,2.56,2.56,0,0,1,2.6-2.49c1.05-.06,1.54-.07,2-.15a9.93,9.93,0,0,0,1.57-.48l-.3,1.31-.84.21a1.84,1.84,0,0,1,.89,1.69,2.09,2.09,0,0,1-1.46,2v0a2.4,2.4,0,0,1,1.73,2.36c0,1.85-1.59,2.79-3.21,2.79a3.47,3.47,0,0,1-3-1.67ZM154,252a1.45,1.45,0,0,0-1.61-1.46,1.52,1.52,0,1,0,0,3A1.54,1.54,0,0,0,154,252Z" transform="translate(-127.35 -154.09)"/><path class="cls-2" d="M156.71,256.92v-9.83l1.34-.22v3.46h.08a2.41,2.41,0,0,1,2-.89c1.43,0,2.77.68,2.77,2.36v4.9l-1.34.22V252c0-1.05-.74-1.38-1.56-1.38a1.92,1.92,0,0,0-2,2.16v3.92Z" transform="translate(-127.35 -154.09)"/><path class="cls-2" d="M164.43,247.09l1.34-.22v3.67a2.86,2.86,0,0,1,2.43-1.1,3.63,3.63,0,0,1,3.57,3.7,3.7,3.7,0,0,1-3.85,3.78,3.4,3.4,0,0,1-3.49-3.28Zm3.64,8.58a2.49,2.49,0,0,0,0-5,2.49,2.49,0,0,0,0,5Z" transform="translate(-127.35 -154.09)"/><path class="cls-2" d="M180.27,253.18a3.83,3.83,0,1,1-3.84-3.74A3.78,3.78,0,0,1,180.27,253.18Zm-3.84-2.49a2.49,2.49,0,1,0,2.5,2.49A2.49,2.49,0,0,0,176.43,250.69Z" transform="translate(-127.35 -154.09)"/><path class="cls-2" d="M187.65,249.44v7.26l-1.3.22v-1h0a2.4,2.4,0,0,1-2.11,1c-1.44,0-2.77-.68-2.77-2.37v-4.89l1.33-.22v4.92c0,1,.74,1.38,1.56,1.38a1.92,1.92,0,0,0,2-2.16v-3.92Z" transform="translate(-127.35 -154.09)"/><path class="cls-2" d="M189.17,256.92v-7.26l1.25-.22V251h0a2.32,2.32,0,0,1,2.17-1.54h.67l-.56,1.34c-1.19-.07-2.22.8-2.22,2.62v3.33Z" transform="translate(-127.35 -154.09)"/><path class="cls-2" d="M193.8,256.92v-9.83l1.34-.22v3.46h.08a2.41,2.41,0,0,1,2-.89c1.43,0,2.77.68,2.77,2.36v4.9l-1.34.22V252c0-1.05-.73-1.38-1.55-1.38a1.92,1.92,0,0,0-2,2.16v3.92Z" transform="translate(-127.35 -154.09)"/><path class="cls-2" d="M208.86,253.18a3.83,3.83,0,1,1-3.84-3.74A3.78,3.78,0,0,1,208.86,253.18ZM205,250.69a2.49,2.49,0,1,0,2.51,2.49A2.48,2.48,0,0,0,205,250.69Z" transform="translate(-127.35 -154.09)"/><path class="cls-2" d="M217.36,253.18a3.83,3.83,0,1,1-3.84-3.74A3.78,3.78,0,0,1,217.36,253.18Zm-3.84-2.49a2.49,2.49,0,1,0,2.5,2.49A2.49,2.49,0,0,0,213.52,250.69Z" transform="translate(-127.35 -154.09)"/><path class="cls-2" d="M224.35,255.74a3.26,3.26,0,0,1-2.55,1.18,3.74,3.74,0,0,1-3.6-3.76,3.58,3.58,0,0,1,3.6-3.72,3.74,3.74,0,0,1,2.47,1v-3.36l1.34-.22v9.83l-1.26.16Zm-2.5-5.05a2.42,2.42,0,0,0-2.32,2.5,2.5,2.5,0,0,0,2.38,2.48,2.39,2.39,0,0,0,2.53-2.48A2.46,2.46,0,0,0,221.85,250.69Z" transform="translate(-127.35 -154.09)"/><path class="cls-2" d="M231.07,256.86v-9.7l1.37-.22v4.17h4.7v-4l1.36-.22v9.76l-1.36.16v-4.5h-4.7v4.34Z" transform="translate(-127.35 -154.09)"/><path class="cls-2" d="M247.5,253.18a3.83,3.83,0,1,1-3.84-3.74A3.79,3.79,0,0,1,247.5,253.18Zm-3.84-2.49a2.49,2.49,0,1,0,2.5,2.49A2.49,2.49,0,0,0,243.66,250.69Z" transform="translate(-127.35 -154.09)"/><path class="cls-2" d="M254.88,249.44v7.26l-1.3.22v-1h0a2.4,2.4,0,0,1-2.11,1c-1.44,0-2.77-.68-2.77-2.37v-4.89l1.33-.22v4.92c0,1,.74,1.38,1.56,1.38a1.92,1.92,0,0,0,2-2.16v-3.92Z" transform="translate(-127.35 -154.09)"/><path class="cls-2" d="M256.79,255a1.82,1.82,0,0,0,1.47.78c.53,0,1.18-.27,1.18-.89,0-1.82-3.46-.56-3.46-3.19a2.19,2.19,0,0,1,2.28-2.22,2.87,2.87,0,0,1,2.28,1l-.79.87a1.71,1.71,0,0,0-1.35-.68c-.57,0-1.08.19-1.08.86,0,1.59,3.46.4,3.46,3.2a2.29,2.29,0,0,1-2.43,2.24,2.89,2.89,0,0,1-2.48-1.18Z" transform="translate(-127.35 -154.09)"/><path class="cls-2" d="M263.26,254.53a2.21,2.21,0,0,0,1.93,1.14,4.61,4.61,0,0,0,2.61-1.23l.27,1.41a4.74,4.74,0,0,1-2.8,1.07,3.69,3.69,0,0,1-3.74-3.94,3.6,3.6,0,0,1,3.52-3.54,3.4,3.4,0,0,1,3.15,1.93Zm3.11-3.38a1.55,1.55,0,0,0-1.22-.46,2.27,2.27,0,0,0-2.28,2.68Z" transform="translate(-127.35 -154.09)"/></svg>