<svg id="Layer_1" data-name="Layer 1" xmlns="http://www.w3.org/2000/svg" viewBox="0 0 435.69 250.24"><defs><style>.cls-1{fill:#fff;}.cls-2{fill:#20419a;}</style></defs><title>Annex icon blue</title><path class="cls-1" d="M395.7,134.22" transform="translate(-177.85 -191.69)"/><path class="cls-2" d="M438.86,356H351.73l-22.67,49.43H296l94.69-203.38q-13.28,3-26.76,7c-119,35.11-201.26,111.81-183.7,171.32s128.26,79.28,247.27,44.16q18.27-5.39,35.31-12Z" transform="translate(-177.85 -191.69)"/><polygon class="cls-2" points="218.31 66.25 186.67 135.45 248.49 135.45 218.31 66.25"/><path class="cls-2" d="M611.18,253.23C595.49,200,505.36,178.6,401.41,199.72l89.53,200.69C574.15,360.89,625.4,301.42,611.18,253.23Z" transform="translate(-177.85 -191.69)"/><path class="cls-1" d="M395.7,477.78" transform="translate(-177.85 -191.69)"/></svg>