<?xml version="1.0" encoding="utf-8"?>
<!-- Generator: Adobe Illustrator 22.1.0, SVG Export Plug-In . SVG Version: 6.00 Build 0)  -->
<svg version="1.1" id="Layer_1" xmlns="http://www.w3.org/2000/svg" xmlns:xlink="http://www.w3.org/1999/xlink" x="0px" y="0px"
	 viewBox="0 0 64 73" style="enable-background:new 0 0 64 73;" xml:space="preserve">
<style type="text/css">
	.st0{fill:#FAB0BC;}
</style>
<g id="XMLID_1_">
	<g>
		<path d="M21.8,37.5c0,0.3,0.3,0.6,0.6,0.6h2.8c0-0.4,0-0.7,0-1.1c0-0.8,0.1-1.5,0.2-2.3c-0.4,0-0.8,0.1-1.3,0.1
			c-0.3,0-0.6,0.2-0.8,0.4l-1.3,2C21.9,37.2,21.8,37.3,21.8,37.5z M36.1,20.8c0.1-0.9,0.2-1.8,0.2-2.8c0-8-5.5-14.5-12.2-14.5
			S11.8,10,11.8,18S17.3,32.5,24,32.5c0.6,0,1.1-0.1,1.7-0.1C27.1,26.7,31.1,22.3,36.1,20.8z M39.6,22.5c-6.7,0-12.2,6.5-12.2,14.5
			s5.5,14.5,12.2,14.5s12.2-6.5,12.2-14.5S46.4,22.5,39.6,22.5z M39.6,53.6c-0.3,0-0.6,0.2-0.8,0.4l-1.3,2c-0.1,0.1-0.1,0.2-0.1,0.3
			c0,0.3,0.3,0.6,0.6,0.6h3.3c0.3,0,0.6-0.3,0.6-0.6c0-0.1,0-0.2-0.1-0.3l-1.3-2C40.2,53.8,39.9,53.6,39.6,53.6z M21.1,34.4
			C14.5,32.8,9.6,26.1,9.6,18C9.6,8.8,16.1,1.3,24,1.3S38.5,8.8,38.5,18c0,0.8-0.1,1.5-0.2,2.3c0.4,0,0.8-0.1,1.3-0.1
			c8,0,14.5,7.5,14.5,16.7c0,8-4.9,14.8-11.5,16.3l1,1.5c0.3,0.5,0.5,1,0.5,1.6c0,1.5-1.3,2.8-2.8,2.8h-0.5v11.1h-2.2V59.2H38
			c-1.5,0-2.8-1.3-2.8-2.8c0-0.6,0.2-1.1,0.5-1.6l1-1.5c-4.7-1.1-8.6-4.9-10.4-9.9v27H24v-30h-1.6c-1.5,0-2.8-1.3-2.8-2.8
			c0-0.6,0.2-1.1,0.5-1.6L21.1,34.4z"/>
		<path d="M29.8,34.6l2.2,0.4c-0.1,0.7-0.2,1.3-0.2,2h-2.2C29.6,36.1,29.7,35.3,29.8,34.6z"/>
		<path class="st0" d="M11.8,18c0-8,5.5-14.5,12.2-14.5S36.3,10,36.3,18c0,0.9-0.1,1.9-0.2,2.8c-5,1.5-8.9,5.9-10.3,11.6
			c-0.6,0.1-1.1,0.1-1.7,0.1C17.3,32.5,11.8,26,11.8,18z M24,5.8c-4,0-7.6,2.9-9.2,7.4l2.1,0.7C18.2,10.3,21,8,24,8V5.8z M16.4,16
			l-2.2-0.4C14.1,16.4,14,17.2,14,18h2.2C16.3,17.3,16.3,16.6,16.4,16z"/>
		<path d="M39.6,24.7v2.2c-3.1,0-5.9,2.3-7.1,6l-2.1-0.7C32,27.6,35.6,24.7,39.6,24.7z"/>
		<path d="M14.2,15.6l2.2,0.4c-0.1,0.7-0.2,1.4-0.2,2.1H14C14,17.2,14.1,16.4,14.2,15.6z"/>
		<path class="st0" d="M23.2,35.2c0.2-0.3,0.5-0.4,0.8-0.4c0.4,0,0.8,0,1.3-0.1c-0.1,0.8-0.2,1.5-0.2,2.3c0,0.4,0,0.7,0,1.1h-2.8
			c-0.3,0-0.6-0.3-0.6-0.6c0-0.1,0-0.2,0.1-0.3L23.2,35.2z"/>
		<path class="st0" d="M41.3,57H38c-0.3,0-0.6-0.3-0.6-0.6c0-0.1,0-0.2,0.1-0.3l1.3-2c0.2-0.3,0.5-0.4,0.8-0.4s0.6,0.2,0.8,0.4
			l1.3,2c0.1,0.1,0.1,0.2,0.1,0.3C41.8,56.7,41.6,57,41.3,57z"/>
		<path class="st0" d="M39.6,24.7c-4,0-7.7,2.9-9.2,7.5l2.1,0.7c1.3-3.6,4.1-6,7.1-6V24.7z M29.6,36.9h2.2c0-0.7,0.1-1.4,0.2-2
			l-2.2-0.4C29.7,35.3,29.6,36.1,29.6,36.9z M27.4,36.9c0-8,5.5-14.5,12.2-14.5S51.9,29,51.9,36.9s-5.5,14.5-12.2,14.5
			S27.4,44.9,27.4,36.9z"/>
		<path d="M24,5.8V8c-3,0-5.8,2.3-7.1,5.9l-2.1-0.7C16.4,8.7,20,5.8,24,5.8z"/>
	</g>
	<g>
	</g>
</g>
</svg>
