<?xml version="1.0" encoding="utf-8"?>
<!-- Generator: Adobe Illustrator 22.1.0, SVG Export Plug-In . SVG Version: 6.00 Build 0)  -->
<svg version="1.1" id="Layer_1" xmlns="http://www.w3.org/2000/svg" xmlns:xlink="http://www.w3.org/1999/xlink" x="0px" y="0px"
	 viewBox="0 0 100 107" style="enable-background:new 0 0 100 107;" xml:space="preserve">
<style type="text/css">
	.st0{fill:#FAB0BC;}
</style>
<g id="XMLID_1_">
	<g>
		<path class="st0" d="M79.2,72.9c0.1,1.6,0,4.6-1.6,6.2c-1.7,1.7-4.8,1.7-6.2,1.6c-0.1-1.6,0-4.6,1.6-6.2
			C74.8,72.8,77.8,72.8,79.2,72.9z"/>
		<circle class="st0" cx="24.4" cy="76.2" r="2"/>
		<path d="M89.9,32.6c0,0.2,0.9,5.7-2.1,8.6c-1.9,1.8-4.7,2.2-6.6,2.2c-0.5,0-0.9,0-1.2,0c-0.3,0.8-1.1,2.1-2.4,3.2
			c1.6,0.5,2.7,2,2.7,3.8c0,1.7-1,3.1-2.4,3.7c-0.5,0.2-1,0.3-1.6,0.3c-2.2,0-4-1.8-4-4c0-0.6,0.1-1.2,0.4-1.7
			c-0.4,0.1-0.9,0.1-1.4,0.1v17.4c3.1-0.3,3.6-2.5,3.6-2.6c0-0.1,0-0.1,0.1-0.2c-0.2-1.3-0.4-5.7,2.1-8.2c0.3-0.3,0.7-0.6,1-0.8
			c3-2,7.4-1.3,7.6-1.2c0.4,0.1,0.8,0.4,0.8,0.8c0,0.2,0.9,5.7-2.1,8.6c-1.9,1.9-4.7,2.2-6.6,2.2c-0.5,0-1,0-1.3-0.1
			c-0.6,1.4-2.2,3.2-5.3,3.4v5.3c0.1-0.2,0.2-0.3,0.4-0.5c3-3,8.4-2.1,8.6-2.1c0.4,0.1,0.8,0.4,0.8,0.8c0,0.2,0.9,5.7-2.1,8.6
			c-1.8,1.8-4.7,2.2-6.6,2.2c-0.5,0-0.9,0-1.2,0v5.5h17.9c0.6,0,1,0.5,1,1c0,0.6-0.4,1-1,1h-78c-0.6,0-1-0.4-1-1c0-0.5,0.4-1,1-1
			h17.8V74.7c-0.3,0-0.5,0-0.8-0.1c0.2,0.5,0.3,1,0.3,1.6c0,2.2-1.8,4-4,4s-4-1.8-4-4c0-2.1,1.6-3.7,3.6-4c-0.2-0.3-0.3-0.5-0.5-0.8
			c-0.3,0-0.7,0-1.1,0c-1.9,0-4.7-0.4-6.6-2.2c-3-3-2.1-8.4-2.1-8.6c0.1-0.4,0.4-0.8,0.8-0.8c0.2,0,5.7-0.9,8.6,2.1
			c2.9,2.9,2.1,8.3,2.1,8.6c0.3,0.7,1.2,2,3.6,2.2v-20c-0.9,0-1.7-0.1-2.4-0.3c0.1,0.3,0.1,0.7,0.1,1c0,2.2-1.8,4-4,4s-4-1.8-4-4
			c0-1.8,1.2-3.3,2.8-3.8c-0.8-0.9-1.3-1.9-1.6-2.5c-0.3,0-0.7,0-1.1,0c-1.9,0-4.7-0.4-6.6-2.2c-3-3-2.1-8.4-2.1-8.6
			c0.1-0.4,0.4-0.8,0.8-0.8c0.2,0,5.7-0.9,8.6,2.1c3,3,2.1,8.4,2.1,8.6c0,0,0,0.1,0,0.1c0.3,1,1.9,4.2,7.2,4.4V41
			c-0.6,0.3-1.3,0.6-2,0.6c-2.2,0-4-1.8-4-4s1.8-4,4-4c0.7,0,1.4,0.2,2,0.6v-2.3c-3.2-0.2-4.8-1.8-5.5-3.2c-0.3,0-0.7,0-1.1,0
			c-1.9,0-4.7-0.4-6.6-2.2c-3-2.9-2.1-8.2-2.1-8.5c0.1-0.4,0.4-0.8,0.8-0.8c0.2,0,5.7-0.9,8.6,2c2.9,2.9,2.1,8.1,2.1,8.4
			c0.3,0.7,1.2,1.9,3.7,2.1v-4.5c0-0.1,0-0.1,0-0.2c-1.1-0.9-4.3-3.7-4.3-7.3c0-4.2,4.5-7.4,4.6-7.6c0.4-0.2,0.8-0.2,1.2,0
			c0.2,0.1,4.7,3.4,4.7,7.6c0,3.5-3.2,6.4-4.3,7.3c0,0.1,0,0.1,0,0.2v2.1c0.6-0.4,1.4-0.7,2.2-0.7c2.2,0,4,1.8,4,4s-1.8,4-4,4
			c-0.8,0-1.6-0.2-2.2-0.7v12.7c5.5-0.3,6.8-3.8,7-4.6c-0.1-1.1-0.6-5.7,2.1-8.4c3-3,8.4-2.1,8.7-2.1c0.4,0.1,0.8,0.4,0.8,0.8
			c0,0.1,0.3,2,0,4.1c-0.2,1.6-0.8,3.3-2.1,4.6c-1.8,1.8-4.7,2.2-6.6,2.2c-0.5,0-0.9,0-1.2,0c-0.3,0.8-1,2.1-2.4,3.2
			c1.6,0.5,2.7,2,2.7,3.8c0,1.7-1,3.1-2.5,3.7c-0.5,0.2-1,0.3-1.6,0.3c-2.2,0-4-1.8-4-4c0-0.6,0.1-1.2,0.4-1.7
			c-0.4,0.1-0.9,0.1-1.4,0.1v17.4c3.1-0.3,3.6-2.5,3.6-2.6c0-0.1,0.1-0.1,0.1-0.2c-0.2-1.3-0.4-5.7,2.1-8.2c0.3-0.3,0.7-0.6,1-0.8
			c3-2,7.4-1.3,7.6-1.2c0.4,0.1,0.8,0.4,0.8,0.8c0,0.2,0.9,5.7-2.1,8.6c-1.8,1.9-4.7,2.2-6.6,2.2c-0.5,0-1,0-1.3-0.1
			c-0.6,1.4-2.2,3.2-5.3,3.4v5.3c0.1-0.2,0.2-0.3,0.4-0.5c3-3,8.4-2.1,8.6-2.1c0.4,0.1,0.8,0.4,0.8,0.8c0,0.2,0.9,5.7-2.1,8.6
			c-1.8,1.8-4.7,2.2-6.6,2.2c-0.5,0-0.9,0-1.2,0v5.5h38.4V74.7c-0.3,0-0.5,0-0.8-0.1c0.2,0.5,0.3,1,0.3,1.6c0,2.2-1.8,4-4,4
			s-4-1.8-4-4c0-2.1,1.6-3.7,3.5-4c-0.2-0.3-0.3-0.5-0.5-0.8c-0.3,0-0.7,0-1.1,0c-1.9,0-4.7-0.4-6.6-2.2c-3-3-2.1-8.4-2.1-8.6
			c0.1-0.4,0.4-0.8,0.8-0.8c0.2,0,5.7-0.9,8.6,2.1c2.9,2.9,2.1,8.3,2.1,8.6c0.3,0.7,1.2,2,3.6,2.2v-20c-0.9,0-1.7-0.1-2.4-0.3
			c0.1,0.3,0.2,0.7,0.2,1c0,2.2-1.8,4-4,4s-4-1.8-4-4c0-1.8,1.2-3.3,2.8-3.8c-0.8-0.9-1.3-1.9-1.6-2.5c-0.3,0-0.7,0-1.1,0
			c-1.9,0-4.7-0.4-6.6-2.2c-2.5-2.5-2.3-6.9-2.1-8.2c0-0.2,0-0.4,0.1-0.4c0.1-0.4,0.4-0.8,0.8-0.8c0.2,0,5.7-0.9,8.6,2.1
			c3,3,2.1,8.4,2.1,8.6c0,0,0,0.1,0,0.1c0.3,1,1.9,4.2,7.2,4.4V41c-0.6,0.3-1.3,0.6-2,0.6c-2.2,0-4-1.8-4-4s1.8-4,4-4
			c0.7,0,1.4,0.2,2,0.6v-2c-3.1-0.2-4.7-1.9-5.4-3.2c-0.3,0-0.7,0-1.1,0c-1.9,0-4.7-0.4-6.6-2.2c-3-3-2.1-8.4-2.1-8.6
			c0.1-0.4,0.4-0.8,0.8-0.8c0.2,0,5.7-0.9,8.6,2.1c2.9,2.9,2.1,8.3,2.1,8.6c0.3,0.7,1.2,2,3.6,2.2v-4.8c0-0.1,0-0.1,0-0.2
			c-1.1-0.9-4.3-3.7-4.3-7.3c0-4.2,4.5-7.4,4.7-7.6c0.3-0.2,0.8-0.2,1.2,0c0.2,0.1,4.7,3.4,4.7,7.6c0,3.5-3.2,6.4-4.3,7.3
			c0,0.1,0,0.1,0,0.2v2.1c0.6-0.4,1.4-0.7,2.2-0.7c2.2,0,4,1.8,4,4s-1.8,4-4,4c-0.8,0-1.6-0.2-2.2-0.7v12.7c5.5-0.3,6.8-3.8,7-4.6
			c-0.1-1.1-0.6-5.7,2.1-8.4c3-3,8.4-2.1,8.6-2.1C89.5,31.9,89.8,32.2,89.9,32.6z M86.4,39.8c1.6-1.6,1.7-4.5,1.6-6.2
			c-1.4-0.1-4.5-0.1-6.2,1.6c-1.6,1.6-1.7,4.5-1.6,6.1C81.6,41.5,84.7,41.5,86.4,39.8z M83.1,61.3c1.6-1.6,1.7-4.5,1.6-6.2
			c-1.4-0.1-4.5-0.1-6.2,1.6c-1.6,1.6-1.7,4.5-1.6,6.2C78.3,63,81.4,63,83.1,61.3z M77.6,79.1c1.6-1.6,1.7-4.5,1.6-6.2
			c-1.4-0.1-4.5-0.1-6.2,1.6c-1.6,1.6-1.7,4.5-1.6,6.2C72.9,80.8,75.9,80.8,77.6,79.1z M78.3,50.4c0-1.1-0.9-2-2-2c-1.1,0-2,0.9-2,2
			s0.9,2,2,2C77.4,52.4,78.3,51.5,78.3,50.4z M75.5,30.8c0-1.1-0.9-2-2-2s-2,0.9-2,2c0,1.1,0.9,2,2,2S75.5,31.9,75.5,30.8z
			 M73.5,17.8c0-2.2-2-4.4-3.2-5.5c-1.1,0.9-3.2,3.1-3.2,5.5s2.2,4.6,3.2,5.5C71.3,22.4,73.5,20.2,73.5,17.8z M69.3,37.5
			c0-1.1-0.9-2-2-2s-2,0.9-2,2c0,1.1,0.9,2,2,2C68.4,39.6,69.3,38.7,69.3,37.5z M66.8,76.2c0-1.1-0.9-2-2-2c-1.1,0-2,0.9-2,2
			s0.9,2,2,2C65.9,78.2,66.8,77.3,66.8,76.2z M65,53.4c0-1.1-0.9-2-2-2c-1.1,0-2,0.9-2,2s0.9,2,2,2C64.1,55.4,65,54.5,65,53.4z
			 M63.8,26.9c0.1-1.4,0.1-4.5-1.6-6.2C60.5,19,57.4,19,56,19.1c-0.1,1.4-0.1,4.5,1.6,6.2C59.2,26.9,62.1,27,63.8,26.9z M63.8,69.5
			c0.1-1.4,0.1-4.5-1.6-6.2c-1.7-1.7-4.7-1.7-6.2-1.6c-0.1,1.4-0.1,4.5,1.6,6.2C59.2,69.5,62.1,69.6,63.8,69.5z M60.2,45.1
			c0.1-1.4,0.1-4.5-1.6-6.1c-1.7-1.7-4.8-1.7-6.2-1.6c-0.1,1.4-0.1,4.5,1.6,6.2C55.7,45.2,58.8,45.2,60.2,45.1z M46,39.8
			c1.6-1.6,1.7-4.5,1.6-6.2c-1.4-0.1-4.5-0.1-6.2,1.6c-1.6,1.6-1.7,4.5-1.6,6.1C41.2,41.5,44.3,41.5,46,39.8z M42.7,61.3
			c1.6-1.6,1.7-4.5,1.6-6.2c-1.4-0.1-4.5-0.1-6.2,1.6c-1.6,1.6-1.7,4.5-1.6,6.2C37.9,63,41,63,42.7,61.3z M37.3,79.1
			c1.6-1.6,1.7-4.5,1.6-6.2c-1.4-0.1-4.5-0.1-6.2,1.6c-1.6,1.6-1.7,4.5-1.6,6.2C32.5,80.8,35.6,80.8,37.3,79.1z M37.9,50.4
			c0-1.1-0.9-2-2-2c-1.1,0-2,0.9-2,2s0.9,2,2,2C37,52.4,37.9,51.5,37.9,50.4z M35.1,30.8c0-1.1-0.9-2-2-2c-1.1,0-2,0.9-2,2
			c0,1.1,0.9,2,2,2S35.1,31.9,35.1,30.8z M33.1,17.8c0-2.2-2-4.4-3.2-5.5c-1.1,0.9-3.2,3.1-3.2,5.5s2.2,4.6,3.2,5.5
			C31,22.4,33.1,20.2,33.1,17.8z M28.9,37.5c0-1.1-0.9-2-2-2c-1.1,0-2,0.9-2,2c0,1.1,0.9,2,2,2C28,39.6,28.9,38.7,28.9,37.5z
			 M26.4,76.2c0-1.1-0.9-2-2-2s-2,0.9-2,2s0.9,2,2,2S26.4,77.3,26.4,76.2z M24.6,53.4c0-1.1-0.9-2-2-2c-1.1,0-2,0.9-2,2s0.9,2,2,2
			C23.8,55.4,24.6,54.5,24.6,53.4z M23.4,69.5c0.1-1.4,0.1-4.5-1.6-6.2c-1.7-1.7-4.8-1.7-6.2-1.6c-0.1,1.4-0.1,4.5,1.6,6.2
			C18.8,69.5,21.7,69.6,23.4,69.5z M23.3,26.6c0.1-1.4,0.1-4.3-1.6-6C20,19,16.9,19,15.5,19.1c-0.1,1.4-0.1,4.3,1.6,6
			C18.8,26.7,21.9,26.7,23.3,26.6z M19.8,45.1c0.1-1.4,0.1-4.5-1.6-6.1c-1.7-1.7-4.8-1.7-6.2-1.6c-0.1,1.4-0.1,4.5,1.6,6.2
			C15.3,45.2,18.4,45.2,19.8,45.1z"/>
		<path class="st0" d="M88,33.7c0.1,1.6,0,4.6-1.6,6.2c-1.7,1.7-4.8,1.7-6.2,1.6c-0.1-1.6,0-4.6,1.6-6.1
			C83.5,33.6,86.6,33.6,88,33.7z"/>
		<circle class="st0" cx="73.5" cy="30.8" r="2"/>
		<circle class="st0" cx="63" cy="53.4" r="2"/>
		<path class="st0" d="M44.3,55.1c0.1,1.6,0,4.6-1.6,6.2C41,63,37.9,63,36.5,62.9c-0.1-1.6,0-4.6,1.6-6.2C39.8,55,42.9,55,44.3,55.1
			z"/>
		<path class="st0" d="M29.9,12.4c1.2,1.1,3.2,3.2,3.2,5.5c0,2.4-2.2,4.5-3.2,5.5c-1.1-0.9-3.2-3.1-3.2-5.5S28.8,13.3,29.9,12.4z"/>
		<path class="st0" d="M18.2,39c1.7,1.7,1.7,4.8,1.6,6.1c-1.4,0.1-4.5,0.1-6.2-1.6c-1.7-1.7-1.7-4.8-1.6-6.2
			C13.4,37.2,16.5,37.2,18.2,39z"/>
	</g>
	<g>
	</g>
</g>
</svg>
