<?xml version="1.0" encoding="UTF-8"?>
<svg width="152px" height="138px" viewBox="0 0 152 138" version="1.1" xmlns="http://www.w3.org/2000/svg" xmlns:xlink="http://www.w3.org/1999/xlink">
    <!-- Generator: Sketch 52.5 (67469) - http://www.bohemiancoding.com/sketch -->
    <title>view services blue</title>
    <desc>Created with Sketch.</desc>
    <g id="view-services-blue" stroke="none" stroke-width="1" fill="none" fill-rule="evenodd">
        <g id="view-services-pink">
            <path d="M109.8,11.2 C113.4,15.3 115,21.1 114.4,27.4 C112.7,42.7 95.3,63.2 76.6,71.8 C58,63.2 40.5,42.7 38.9,27.4 C38.2,20.7 39.8,14.8 43.4,10.6 C46.4,7.2 50.5,5.3 55,5.3 C62,5.3 69.1,10 74.4,18.1 C74.9,18.9 75.9,19.3 76.8,19.3 C77.7,19.3 78.6,18.7 79,17.9 C83.3,9.9 89.9,5.3 97.1,5.3 C102,5.3 106.6,7.5 109.8,11.2 Z" id="Path" fill="#FAB0BC"></path>
            <path d="M114,8.6 C118.7,13.9 120.8,21 119.9,28.8 C117.8,47.9 96.4,69.3 77.7,77.4 C77.4,77.5 77,77.6 76.6,77.6 C76.2,77.6 75.9,77.5 75.5,77.4 C56.8,69.3 35.4,47.8 33.3,28.8 C32.4,20.7 34.5,13.3 39.1,8 C43.1,3.4 48.7,0.9 54.8,0.9 C62.6,0.9 70.3,5.1 76.3,12.6 C81.8,5.2 89.1,1 97.2,1 C103.6,1 109.7,3.8 114,8.6 Z M114.4,27.4 C115.1,21.1 113.5,15.3 109.8,11.2 C106.6,7.5 101.9,5.3 97.1,5.3 C89.9,5.3 83.3,9.9 79,18 C78.5,18.9 77.7,19.4 76.8,19.4 C75.9,19.4 75,19 74.4,18.2 C69.1,10 62,5.3 55,5.3 C50.5,5.3 46.4,7.2 43.4,10.6 C39.8,14.7 38.2,20.7 38.9,27.4 C40.5,42.7 58,63.2 76.7,71.9 C95.3,63.2 112.8,42.7 114.4,27.4 Z" id="Shape" fill="#282460" fill-rule="nonzero"></path>
            <path d="M114.7,81.8 C114.7,81.8 114.7,81.9 114.7,81.9 C114.7,82 114.8,82.1 114.8,82.2 C114.1,81.9 113.4,81.7 112.6,81.8 C109.9,81.8 100.9,87 95.4,90.2 L92.6,91.9 L94.7,92.4 L95.6,92.6 C98.1,91.4 106.7,87.3 109.3,85.8 C111,84.8 113.1,83.5 115.2,82.1 L114.7,81.8 Z M152,77.7 C152.1,79.6 151.6,81.5 150.5,83 C150.5,84.4 150.2,85.7 149.7,86.9 C147.7,92 130.7,106 112.8,118.3 C111.9,119.5 110.6,120.3 109.2,120.7 C94.1,130.8 79,139 72.1,139 C58.6,139 3.6,109.8 1.3,108.5 C0.2,107.9 -0.2,106.4 0.3,105.2 C0.9,104 2.3,103.5 3.4,104.1 C19,112.4 61.7,134 72.1,134 C77.3,134 88.5,128.2 100.5,120.6 C97,119.9 93.1,118.8 89.3,117.7 C86.3,116.7 83.3,115.9 80.2,115.4 C70.4,115 60.5,115.8 50.9,117.7 C50.1,117.9 49.2,117.6 48.6,116.9 C48,116.2 47.8,115.3 48.1,114.4 C48.4,113.5 49.1,112.9 49.9,112.8 C59.9,110.9 70.2,110.1 80.4,110.5 C83.8,111 87.3,111.8 90.6,113 C95.4,114.4 103.8,116.9 107.4,116.2 L109.2,115 C110.6,112.9 111,110.2 110.1,107.7 C108.4,103 102.5,99.3 93.7,97.2 C88.7,96 83.6,95.2 78.5,94.8 C75.4,94.5 71.8,94.1 67.1,93.5 C65.4,93.2 63.6,92.2 60.8,90.5 C50.8,84.3 39.7,80.1 28.2,78.3 C11.2,75.3 4.1,78.5 4,78.5 C3.2,78.9 2.3,78.8 1.6,78.3 C0.9,77.8 0.5,76.9 0.6,76 C0.7,75.1 1.2,74.3 2,74 C2.4,73.8 10.4,70 29.1,73.4 C41.1,75.4 52.7,79.7 63.2,86.3 C64.6,87.3 66.2,88.1 67.8,88.7 C72.5,89.3 76,89.6 79.1,89.9 C81.1,90.1 83,90.3 84.9,90.5 C87.8,89.1 90.7,87.6 93.4,85.9 C102.5,80.6 109.2,76.9 112.8,76.9 C115.7,76.9 117.8,77.7 118.8,79.4 C118.9,79.6 119,79.7 119,79.9 C122.2,77.8 125.7,75.7 129.1,73.9 C137.3,69.6 145.8,71.6 149.5,74 C150.8,74.7 151.7,76.1 152,77.7 Z M147.1,78.3 C147,78.2 147,78.2 146.9,78.1 C144.2,76.4 137.5,74.9 131.1,78.2 C126.9,80.4 122.6,83.2 118.8,85.6 C116.2,87.3 113.7,88.8 111.6,90.1 C109.9,91 105.8,93.1 102.4,94.8 C103.8,95.4 105.2,96.1 106.5,96.9 C114.9,92.1 119.6,89 122.9,86.7 C126.5,84 130.4,81.9 134.5,80.2 C140.2,77.9 144.4,77.3 147.1,78.3 Z M145.3,85.1 C145.6,84.4 145.8,83.7 145.7,83 C145.4,82.7 142.9,82.1 136.2,84.8 C132.4,86.3 128.8,88.3 125.5,90.8 C122.3,93 118.1,95.9 110.7,100.1 C112.4,101.7 113.7,103.7 114.5,105.9 C115.1,107.4 115.3,109 115.3,110.7 C130.4,99.9 143.7,88.8 145.3,85.1 Z" id="Shape" fill="#282460" fill-rule="nonzero"></path>
        </g>
    </g>
</svg>