<?xml version="1.0" encoding="UTF-8"?>
<svg width="143px" height="137px" viewBox="0 0 143 137" version="1.1" xmlns="http://www.w3.org/2000/svg" xmlns:xlink="http://www.w3.org/1999/xlink">
    <!-- Generator: Sketch 52.5 (67469) - http://www.bohemiancoding.com/sketch -->
    <title>Get involved blue</title>
    <desc>Created with Sketch.</desc>
    <g id="Get-involved-blue" stroke="none" stroke-width="1" fill="none" fill-rule="evenodd">
        <g id="Get-involved-pink" transform="translate(1.000000, 1.000000)">
            <g id="XMLID_3_">
                <g id="Group">
                    <path d="M49.4776978,100.335252 L49.4776978,113.936691 C49.4776978,114.922302 48.5906475,115.809353 47.5064748,115.809353 C46.4223022,115.809353 45.5352518,114.922302 45.5352518,113.936691 L45.5352518,104.573381 C45.5352518,103.58777 44.6482014,102.897842 43.7611511,102.897842 C42.8741007,102.897842 41.9870504,103.784892 41.9870504,104.573381 L41.9870504,126.355396 C41.9870504,127.341007 41.1,128.228058 40.0158273,128.228058 C38.9316547,128.228058 38.0446043,127.341007 38.0446043,126.355396 L38.0446043,110.881295 C38.0446043,109.895683 37.157554,109.205755 36.2705036,109.205755 C35.3834532,109.205755 34.4964029,110.092806 34.4964029,110.881295 L34.4964029,130.494964 C34.4964029,131.480576 33.6093525,132.367626 32.5251799,132.367626 C31.4410072,132.367626 30.5539568,131.480576 30.5539568,130.494964 L30.5539568,110.881295 C30.5539568,109.895683 29.6669065,109.205755 28.7798561,109.205755 C27.6956835,109.205755 27.0057554,110.092806 27.0057554,110.881295 L27.0057554,126.355396 C27.0057554,127.341007 26.118705,128.228058 25.0345324,128.228058 C23.9503597,128.228058 23.0633094,127.341007 23.0633094,126.355396 L23.0633094,109.698561 C23.0633094,108.71295 22.176259,108.023022 21.2892086,108.023022 C20.205036,108.023022 19.5151079,108.910072 19.5151079,109.698561 L19.5151079,120.146043 C19.5151079,121.131655 18.6280576,122.018705 17.5438849,122.018705 C16.4597122,122.018705 15.5726619,121.131655 15.5726619,120.146043 L15.5726619,118.273381 L15.5726619,100.335252 C15.5726619,96.0971223 17.3467626,92.1546763 20.4021583,89.0992806 C20.4021583,89.0992806 20.4021583,88.9021583 20.5992806,88.9021583 C22.9647482,89.5920863 26.8086331,90.2820144 32.5251799,90.2820144 C38.2417266,90.2820144 42.2827338,89.394964 44.4510791,88.9021583 C44.4510791,88.9021583 44.4510791,88.9021583 44.6482014,89.0992806 C47.7035971,92.1546763 49.4776978,96.0971223 49.4776978,100.335252 Z" id="Path" fill="#FAB0BC"></path>
                    <path d="M125.271223,18.7266187 L125.271223,36.6647482 C125.271223,40.9028777 123.497122,44.8453237 120.441727,47.9007194 C120.441727,47.9007194 120.441727,47.9007194 120.244604,48.0978417 C117.977698,47.4079137 114.035252,46.7179856 108.318705,46.7179856 C102.602158,46.7179856 98.5611511,47.605036 96.3928058,48.0978417 C96.3928058,48.0978417 96.3928058,48.0978417 96.1956835,47.9007194 C93.1402878,44.8453237 91.3661871,40.9028777 91.3661871,36.6647482 L91.3661871,22.9647482 C91.3661871,21.9791367 92.2532374,21.0920863 93.3374101,21.0920863 C94.4215827,21.0920863 95.3086331,21.9791367 95.3086331,22.9647482 L95.3086331,32.3280576 C95.3086331,33.3136691 96.1956835,34.0035971 97.0827338,34.0035971 C98.1669065,34.0035971 98.8568345,33.1165468 98.8568345,32.3280576 L98.8568345,10.5460432 C98.8568345,9.56043165 99.7438849,8.67338129 100.828058,8.67338129 C101.91223,8.67338129 102.799281,9.56043165 102.799281,10.5460432 L102.799281,26.0201439 C102.799281,27.0057554 103.686331,27.6956835 104.573381,27.6956835 C105.657554,27.6956835 106.347482,26.8086331 106.347482,26.0201439 L106.347482,10.5460432 L106.347482,6.40647482 C106.347482,5.42086331 107.234532,4.53381295 108.318705,4.53381295 C109.402878,4.53381295 110.289928,5.42086331 110.289928,6.40647482 L110.289928,10.447482 L110.289928,25.9215827 C110.289928,26.9071942 111.176978,27.5971223 112.064029,27.5971223 C113.148201,27.5971223 113.838129,26.7100719 113.838129,25.9215827 L113.838129,10.5460432 C113.838129,9.56043165 114.72518,8.67338129 115.809353,8.67338129 C116.893525,8.67338129 117.780576,9.56043165 117.780576,10.5460432 L117.780576,27.3014388 C117.780576,28.2870504 118.667626,28.9769784 119.554676,28.9769784 C120.638849,28.9769784 121.328777,28.0899281 121.328777,27.3014388 L121.328777,16.8539568 C121.328777,15.8683453 122.215827,14.981295 123.3,14.981295 C124.384173,14.981295 125.271223,15.8683453 125.271223,16.8539568 L125.271223,18.7266187 Z" id="Path" fill="#FAB0BC"></path>
                    <path d="M140.745324,45.1410072 C140.745324,46.0280576 140.055396,46.8165468 138.971223,46.8165468 L125.665468,46.8165468 C124.97554,47.8021583 124.285612,48.8863309 123.398561,49.6748201 C123.595683,49.8719424 123.595683,49.9705036 123.595683,50.1676259 L123.595683,92.0561151 L131.086331,92.0561151 C134.141727,92.0561151 136.605755,94.4215827 136.605755,97.3784173 C136.605755,98.0683453 136.408633,98.5611511 136.211511,99.2510791 C138.872662,99.7438849 141.041007,101.813669 141.041007,104.573381 C141.041007,107.333094 138.872662,109.501439 136.211511,109.895683 C136.408633,110.388489 136.605755,111.078417 136.605755,111.768345 C136.605755,114.626619 134.141727,117.090647 131.086331,117.090647 L129.706475,117.090647 C129.903597,117.780576 130.100719,118.273381 130.100719,118.963309 C130.100719,121.821583 127.636691,124.285612 124.581295,124.285612 L123.694245,124.285612 L123.694245,134.043165 C123.694245,134.930216 123.004317,135.718705 121.920144,135.718705 C121.033094,135.718705 120.146043,135.028777 120.146043,134.043165 L120.146043,124.285612 L111.374101,124.285612 L103.686331,124.285612 C101.222302,124.285612 98.8568345,123.989928 96.5899281,123.102878 L96.5899281,134.043165 C96.5899281,134.930216 95.7028777,135.718705 94.8158273,135.718705 C93.928777,135.718705 93.0417266,135.028777 93.0417266,134.043165 L93.0417266,121.427338 C91.957554,120.73741 90.8733813,120.047482 89.9863309,119.258993 C89.7892086,119.456115 89.5920863,119.456115 89.4935252,119.456115 L45.7323741,119.456115 L45.7323741,126.651079 C45.7323741,129.509353 43.2683453,131.973381 40.2129496,131.973381 C39.5230216,131.973381 38.9316547,131.776259 38.2417266,131.677698 C37.7489209,134.240288 35.5805755,136.310072 32.7223022,136.310072 C29.8640288,136.310072 27.5971223,134.240288 27.2028777,131.677698 C26.7100719,131.87482 25.9215827,131.973381 25.2316547,131.973381 C22.176259,131.973381 19.7122302,129.607914 19.7122302,126.651079 L19.7122302,125.271223 C19.0223022,125.468345 18.4309353,125.566906 17.7410072,125.566906 C14.6856115,125.566906 12.2215827,123.201439 12.2215827,120.244604 L12.2215827,119.357554 L2.16834532,119.357554 C1.28129496,119.357554 0.394244604,118.470504 0.394244604,117.682014 C0.394244604,116.794964 1.08417266,116.006475 2.16834532,116.006475 L12.3201439,116.006475 L12.3201439,107.825899 L12.3201439,100.532374 C12.3201439,98.1669065 12.7143885,95.9 13.6014388,93.7316547 L2.16834532,93.7316547 C1.28129496,93.7316547 0.394244604,93.0417266 0.394244604,92.0561151 C0.394244604,91.1690647 1.08417266,90.3805755 2.16834532,90.3805755 L15.3755396,90.3805755 C16.0654676,89.394964 16.7553957,88.3107914 17.642446,87.5223022 C17.4453237,87.3251799 17.4453237,87.2266187 17.4453237,87.0294964 L17.4453237,44.8453237 L9.95467626,44.8453237 C6.89928058,44.8453237 4.4352518,42.4798561 4.4352518,39.5230216 C4.4352518,38.8330935 4.6323741,38.3402878 4.8294964,37.6503597 C2.16834532,37.157554 0,35.0877698 0,32.3280576 C0,29.5683453 2.16834532,27.4 4.8294964,27.0057554 C4.6323741,26.5129496 4.4352518,25.8230216 4.4352518,25.1330935 C4.4352518,22.2748201 6.89928058,19.8107914 9.95467626,19.8107914 L11.4330935,19.8107914 C11.2359712,19.1208633 11.0388489,18.6280576 11.0388489,17.9381295 C11.0388489,15.0798561 13.5028777,12.6158273 16.5582734,12.6158273 L17.4453237,12.6158273 L17.4453237,3.05539568 C17.4453237,2.16834532 18.3323741,1.37985612 19.2194245,1.37985612 C20.1064748,1.37985612 20.9935252,2.06978417 20.9935252,3.05539568 L20.9935252,12.8129496 L29.5683453,12.8129496 L37.2561151,12.8129496 C39.7201439,12.8129496 42.0856115,13.1086331 44.352518,13.9956835 L44.352518,3.05539568 C44.352518,2.16834532 45.2395683,1.37985612 46.1266187,1.37985612 C47.0136691,1.37985612 47.9007194,2.06978417 47.9007194,3.05539568 L47.9007194,15.671223 C48.9848921,16.3611511 50.0690647,17.0510791 50.9561151,17.8395683 C51.0546763,17.7410072 51.2517986,17.7410072 51.4489209,17.7410072 L95.2100719,17.7410072 L95.2100719,10.5460432 C95.2100719,7.68776978 97.6741007,5.22374101 100.729496,5.22374101 C101.419424,5.22374101 102.010791,5.42086331 102.700719,5.51942446 C103.193525,2.95683453 105.361871,0.88705036 108.220144,0.88705036 C111.078417,0.88705036 113.345324,2.95683453 113.739568,5.51942446 C114.232374,5.32230216 115.020863,5.22374101 115.710791,5.22374101 C118.766187,5.22374101 121.230216,7.58920863 121.230216,10.5460432 L121.230216,11.9258993 C121.920144,11.728777 122.511511,11.6302158 123.201439,11.6302158 C126.256835,11.6302158 128.720863,13.9956835 128.720863,16.952518 L128.720863,17.7410072 L138.872662,17.7410072 C139.759712,17.7410072 140.646763,18.6280576 140.646763,19.4165468 C140.646763,20.3035971 139.956835,21.0920863 138.872662,21.0920863 L128.720863,21.0920863 L128.720863,29.2726619 L128.720863,36.5661871 C128.720863,38.9316547 128.326619,41.1985612 127.439568,43.3669065 L138.971223,43.3669065 C139.858273,43.4654676 140.745324,44.2539568 140.745324,45.1410072 Z M125.271223,36.6647482 L125.271223,18.7266187 L125.271223,16.8539568 C125.271223,15.8683453 124.384173,14.981295 123.3,14.981295 C122.215827,14.981295 121.328777,15.8683453 121.328777,16.8539568 L121.328777,27.2028777 C121.328777,28.0899281 120.638849,28.8784173 119.554676,28.8784173 C118.667626,28.8784173 117.780576,28.1884892 117.780576,27.2028777 L117.780576,10.447482 C117.780576,9.4618705 116.893525,8.57482014 115.809353,8.57482014 C114.72518,8.57482014 113.838129,9.4618705 113.838129,10.447482 L113.838129,25.9215827 C113.838129,26.8086331 113.148201,27.5971223 112.064029,27.5971223 C111.176978,27.5971223 110.289928,26.9071942 110.289928,25.9215827 L110.289928,10.5460432 L110.289928,6.40647482 C110.289928,5.42086331 109.402878,4.53381295 108.318705,4.53381295 C107.234532,4.53381295 106.347482,5.42086331 106.347482,6.40647482 L106.347482,10.447482 L106.347482,25.9215827 C106.347482,26.8086331 105.657554,27.5971223 104.573381,27.5971223 C103.686331,27.5971223 102.799281,26.9071942 102.799281,25.9215827 L102.799281,10.5460432 C102.799281,9.56043165 101.91223,8.67338129 100.828058,8.67338129 C99.7438849,8.67338129 98.8568345,9.56043165 98.8568345,10.5460432 L98.8568345,32.3280576 C98.8568345,33.2151079 98.1669065,34.0035971 97.0827338,34.0035971 C96.1956835,34.0035971 95.3086331,33.3136691 95.3086331,32.3280576 L95.3086331,22.9647482 C95.3086331,21.9791367 94.4215827,21.0920863 93.3374101,21.0920863 C92.2532374,21.0920863 91.3661871,21.9791367 91.3661871,22.9647482 L91.3661871,36.5661871 C91.3661871,40.8043165 93.1402878,44.7467626 96.1956835,47.8021583 C96.3928058,47.9992806 96.3928058,47.9992806 96.3928058,47.9992806 C98.5611511,47.5064748 102.602158,46.6194245 108.318705,46.6194245 C114.035252,46.6194245 117.977698,47.3093525 120.244604,47.9992806 C120.441727,47.8021583 120.441727,47.8021583 120.441727,47.8021583 C123.497122,44.8453237 125.271223,40.9028777 125.271223,36.6647482 Z M119.751799,85.5510791 L119.751799,51.4489209 C118.17482,50.9561151 114.232374,49.9705036 108.220144,49.9705036 C102.207914,49.9705036 98.4625899,50.9561151 96.6884892,51.4489209 L96.6884892,86.2410072 C98.9553957,85.5510791 101.320863,85.0582734 103.784892,85.0582734 L117.879137,85.2553957 C118.470504,85.1568345 119.258993,85.3539568 119.751799,85.5510791 Z M93.0417266,50.4633094 C93.0417266,50.2661871 93.0417266,50.2661871 93.2388489,49.9705036 C92.3517986,49.0834532 91.6618705,48.0978417 90.9719424,47.0136691 L51.6460432,47.0136691 C51.4489209,47.0136691 51.2517986,46.8165468 51.1532374,46.8165468 C50.2661871,47.7035971 49.1820144,48.3935252 48.0978417,48.9848921 L48.0978417,86.7338129 C48.0978417,86.9309353 48.0978417,87.0294964 47.9007194,87.2266187 C48.7877698,88.1136691 49.4776978,89.0992806 50.1676259,90.0848921 L89.4935252,90.0848921 C89.6906475,90.0848921 89.8877698,90.2820144 89.9863309,90.2820144 C90.8733813,89.394964 91.957554,88.6064748 93.0417266,88.1136691 L93.0417266,50.4633094 Z M89.8877698,104.671942 C89.8877698,98.8568345 88.8035971,95.3086331 88.3107914,93.6330935 L51.8431655,93.6330935 C52.5330935,95.8014388 53.1244604,98.0683453 53.1244604,100.433813 L53.1244604,107.727338 L53.1244604,112.16259 L53.1244604,114.035252 C53.1244604,114.72518 52.9273381,115.217986 52.7302158,115.710791 L88.3107914,115.710791 C88.8035971,114.232374 89.8877698,110.48705 89.8877698,104.671942 Z M52.6316547,43.4654676 L89.0992806,43.4654676 C88.4093525,41.2971223 87.8179856,39.0302158 87.8179856,36.6647482 L87.8179856,29.371223 L87.8179856,24.9359712 L87.8179856,23.0633094 C87.8179856,22.3733813 88.0151079,21.8805755 88.2122302,21.3877698 L52.6316547,21.3877698 C52.1388489,22.9647482 51.0546763,26.7100719 51.0546763,32.4266187 C51.0546763,38.1431655 52.1388489,41.6913669 52.6316547,43.4654676 Z M49.4776978,114.035252 L49.4776978,100.433813 C49.4776978,96.1956835 47.7035971,92.2532374 44.6482014,89.1978417 C44.4510791,89.0007194 44.4510791,89.0007194 44.4510791,89.0007194 C42.2827338,89.4935252 38.2417266,90.3805755 32.5251799,90.3805755 C26.8086331,90.3805755 22.8661871,89.6906475 20.5992806,89.0007194 C20.4021583,89.0007194 20.4021583,89.1978417 20.4021583,89.1978417 C17.3467626,92.2532374 15.5726619,96.1956835 15.5726619,100.433813 L15.5726619,118.273381 L15.5726619,120.146043 C15.5726619,121.131655 16.4597122,122.018705 17.5438849,122.018705 C18.6280576,122.018705 19.5151079,121.131655 19.5151079,120.146043 L19.5151079,109.698561 C19.5151079,108.811511 20.205036,108.023022 21.2892086,108.023022 C22.176259,108.023022 23.0633094,108.71295 23.0633094,109.698561 L23.0633094,126.355396 C23.0633094,127.341007 23.9503597,128.228058 25.0345324,128.228058 C26.118705,128.228058 27.0057554,127.341007 27.0057554,126.355396 L27.0057554,110.881295 C27.0057554,109.994245 27.6956835,109.205755 28.7798561,109.205755 C29.6669065,109.205755 30.5539568,109.895683 30.5539568,110.881295 L30.5539568,130.494964 C30.5539568,131.480576 31.4410072,132.367626 32.5251799,132.367626 C33.6093525,132.367626 34.4964029,131.480576 34.4964029,130.494964 L34.4964029,110.881295 C34.4964029,109.994245 35.3834532,109.205755 36.2705036,109.205755 C37.157554,109.205755 38.0446043,109.895683 38.0446043,110.881295 L38.0446043,126.355396 C38.0446043,127.341007 38.9316547,128.228058 40.0158273,128.228058 C41.1,128.228058 41.9870504,127.341007 41.9870504,126.355396 L41.9870504,104.573381 C41.9870504,103.686331 42.8741007,102.897842 43.7611511,102.897842 C44.6482014,102.897842 45.5352518,103.58777 45.5352518,104.573381 L45.5352518,113.936691 C45.5352518,114.922302 46.4223022,115.809353 47.5064748,115.809353 C48.5906475,115.907914 49.4776978,115.020863 49.4776978,114.035252 Z M44.352518,85.5510791 L44.352518,50.5618705 C42.0856115,51.2517986 39.7201439,51.7446043 37.2561151,51.7446043 L24.9359712,51.7446043 L22.9647482,51.7446043 C22.2748201,51.7446043 21.5848921,51.547482 20.9935252,51.4489209 L21.1906475,85.5510791 C22.7676259,86.0438849 26.7100719,87.0294964 32.7223022,87.0294964 C38.7345324,87.0294964 42.5784173,86.0438849 44.352518,85.5510791 Z" id="Shape" fill="#282460" fill-rule="nonzero"></path>
                </g>
            </g>
            <g id="XMLID_2_" transform="translate(2.956835, 15.769784)" fill="#FAB0BC">
                <path d="M46.1266187,27.7942446 C46.1266187,27.7942446 46.1266187,27.7942446 45.9294964,27.9913669 C42.7755396,30.8496403 38.6359712,32.623741 34.2007194,32.623741 L20.0079137,32.623741 C18.923741,32.623741 18.0366906,31.7366906 18.0366906,30.7510791 C18.0366906,29.7654676 18.923741,28.8784173 20.0079137,28.8784173 L29.7654676,28.8784173 C30.8496403,28.8784173 31.5395683,27.9913669 31.5395683,27.2028777 C31.5395683,26.3158273 30.652518,25.5273381 29.7654676,25.5273381 L6.99784173,25.5273381 C5.91366906,25.5273381 5.22374101,24.6402878 5.22374101,23.6546763 C5.22374101,22.6690647 6.11079137,21.7820144 7.19496403,21.7820144 L23.3589928,21.7820144 C24.4431655,21.7820144 25.1330935,20.894964 25.1330935,20.1064748 C25.1330935,19.2194245 24.2460432,18.4309353 23.3589928,18.4309353 L2.75971223,18.4309353 C1.67553957,18.4309353 0.788489209,17.5438849 0.788489209,16.5582734 C0.788489209,15.5726619 1.67553957,14.6856115 2.75971223,14.6856115 L6.99784173,14.6856115 L23.1618705,14.6856115 C24.2460432,14.6856115 24.9359712,13.7985612 24.9359712,13.0100719 C24.9359712,12.1230216 24.0489209,11.3345324 23.1618705,11.3345324 L6.99784173,11.3345324 C5.91366906,11.3345324 5.02661871,10.447482 5.02661871,9.4618705 C5.02661871,8.47625899 5.91366906,7.58920863 6.99784173,7.58920863 L24.4431655,7.58920863 C25.5273381,7.58920863 26.2172662,6.70215827 26.2172662,5.91366906 C26.2172662,5.02661871 25.3302158,4.2381295 24.4431655,4.2381295 L13.6014388,4.2381295 C12.5172662,4.2381295 11.6302158,3.35107914 11.6302158,2.36546763 C11.6302158,1.37985612 12.5172662,0.492805755 13.6014388,0.492805755 L15.5726619,0.492805755 L26.6115108,0.492805755 L34.2992806,0.492805755 C38.7345324,0.492805755 42.8741007,2.16834532 46.0280576,5.12517986 C46.0280576,5.12517986 46.2251799,5.12517986 46.2251799,5.32230216 C45.5352518,7.49064748 44.8453237,11.3345324 44.8453237,16.7553957 C44.7467626,21.8805755 45.6338129,25.8230216 46.1266187,27.7942446 Z" id="Path"></path>
            </g>
            <g id="XMLID_1_" transform="translate(91.661871, 87.719424)" fill="#FAB0BC">
                <path d="M43.5640288,15.1784173 C44.6482014,15.1784173 45.5352518,16.0654676 45.5352518,17.0510791 C45.5352518,18.0366906 44.6482014,18.923741 43.5640288,18.923741 L23.0633094,18.923741 C21.9791367,18.923741 21.2892086,19.8107914 21.2892086,20.5992806 C21.2892086,21.4863309 22.176259,22.2748201 23.0633094,22.2748201 L39.2273381,22.2748201 C40.3115108,22.2748201 41.1985612,23.1618705 41.1985612,24.147482 C41.1985612,25.1330935 40.3115108,26.0201439 39.2273381,26.0201439 L21.7820144,26.0201439 C20.6978417,26.0201439 20.0079137,26.9071942 20.0079137,27.6956835 C20.0079137,28.5827338 20.894964,29.371223 21.7820144,29.371223 L32.623741,29.371223 C33.7079137,29.371223 34.594964,30.2582734 34.594964,31.2438849 C34.594964,32.2294964 33.7079137,33.1165468 32.623741,33.1165468 L12.0244604,33.1165468 C7.58920863,33.1165468 3.44964029,31.4410072 0.295683453,28.4841727 C0.295683453,28.4841727 0.295683453,28.4841727 0.0985611511,28.2870504 C0.788489209,26.118705 1.47841727,22.2748201 1.47841727,16.8539568 C1.47841727,11.4330935 0.591366906,7.49064748 0.0985611511,5.42086331 C0.0985611511,5.42086331 0.0985611511,5.42086331 0.295683453,5.22374101 C3.44964029,2.36546763 7.58920863,0.591366906 12.0244604,0.591366906 L26.2172662,0.591366906 C27.3014388,0.591366906 28.1884892,1.47841727 28.1884892,2.46402878 C28.1884892,3.44964029 27.3014388,4.33669065 26.2172662,4.33669065 L16.4597122,4.33669065 C15.3755396,4.33669065 14.6856115,5.22374101 14.6856115,6.01223022 C14.6856115,6.89928058 15.5726619,7.68776978 16.4597122,7.68776978 L39.2273381,7.68776978 C40.3115108,7.68776978 41.0014388,8.57482014 41.0014388,9.56043165 C41.0014388,10.5460432 40.1143885,11.4330935 39.0302158,11.4330935 L22.8661871,11.4330935 C21.7820144,11.4330935 21.0920863,12.3201439 21.0920863,13.1086331 C21.0920863,13.9956835 21.9791367,14.7841727 22.8661871,14.7841727 L43.5640288,14.7841727 L43.5640288,15.1784173 Z" id="Path"></path>
            </g>
        </g>
    </g>
</svg>