<?xml version="1.0" encoding="UTF-8"?>
<svg width="152px" height="137px" viewBox="0 0 152 137" version="1.1" xmlns="http://www.w3.org/2000/svg" xmlns:xlink="http://www.w3.org/1999/xlink">
    <!-- Generator: Sketch 52.5 (67469) - http://www.bohemiancoding.com/sketch -->
    <title>view programs blue</title>
    <desc>Created with Sketch.</desc>
    <g id="view-programs-blue" stroke="none" stroke-width="1" fill="none" fill-rule="evenodd">
        <g id="view-programs-pink" transform="translate(2.000000, 0.000000)">
            <circle id="Oval" fill="#FAB0BC" cx="98.1390071" cy="13.8943262" r="13.3113475"></circle>
            <circle id="Oval" fill="#FAB0BC" cx="37.0879433" cy="27.5134752" r="11.6595745"></circle>
            <g id="noun_Family_686641" transform="translate(0.000000, 1.000000)">
                <path d="M37.3794326,38.6588652 C44.2780142,38.6588652 49.8163121,33.1205674 49.8163121,26.2219858 C49.8163121,19.3234043 44.2780142,13.7851064 37.3794326,13.7851064 C30.4808511,13.7851064 24.9425532,19.3234043 24.9425532,26.2219858 C24.9425532,33.1205674 30.4808511,38.6588652 37.3794326,38.6588652 Z M98.041844,27.5943262 C105.426241,27.5943262 111.450355,21.5702128 111.450355,14.1858156 C111.450355,6.80141844 104.357447,0 96.9730496,0 C89.5886525,0 83.7588652,6.6070922 84.6333333,14.1858156 C85.4106383,21.5702128 90.6574468,27.5943262 98.041844,27.5943262 Z M84.0056738,103.758156 C89.058156,103.369504 93.2361702,99.5801418 93.2361702,94.3333333 C93.2361702,89.1836879 89.1553191,84.9085106 84.0056738,84.9085106 C78.9531915,84.9085106 74.5808511,87.0460993 74.1921986,93.3617021 C73.9007092,98.6085106 77.5929078,104.243972 84.0056738,103.758156 Z" id="Shape" stroke="#282460" stroke-width="4"></path>
                <g id="XMLID_3_" transform="translate(59.326241, 97.248227)">
                    <path d="M55.6056738,3.8177305 C55.8971631,7.80141844 53.9539007,10.5219858 51.2333333,13.1453901 C49.5815603,14.7 47.5411348,16.0602837 44.9177305,17.8092199 C42.9744681,19.0723404 42.1971631,18.8780142 42.1971631,21.7929078 C42.2943262,27.5255319 42.0028369,35.8815603 41.9056738,41.6141844 C36.8531915,42.5858156 21.4042553,42.9744681 18.9751773,42.7801418 C18.8780142,38.3106383 18.7808511,33.9382979 18.6836879,29.4687943 C18.6836879,27.5255319 19.4609929,23.3475177 17.0319149,22.3758865 C11.9794326,20.2382979 7.50992908,17.129078 3.62340426,13.2425532 C2.55460993,12.1737589 1.77730496,10.8134752 1.68014184,9.25886525 C1.58297872,8.28723404 1.19432624,6.92695035 2.26312057,6.34397163 C3.23475177,5.76099291 4.40070922,6.05248227 5.56666667,6.53829787 C14.7971631,10.8134752 25.5822695,14.7 35.7843972,11.493617 C38.5049645,10.6191489 41.1283688,9.16170213 43.4602837,7.50992908 C45.4035461,6.05248227 55.1198582,-2.59503546 55.6056738,3.8177305 Z" id="Path" fill="#FAB0BC"></path>
                    <path d="M42.5574468,6.41276596 C40.322695,8.06453901 37.6021277,9.52198582 34.8815603,10.3964539 C24.6794326,13.6028369 13.8943262,9.71631206 4.66382979,5.44113475 C3.59503546,4.95531915 2.42907801,4.66382979 1.36028369,5.24680851 C0.291489362,5.82978723 0.680141844,7.19007092 0.777304965,8.16170213 C0.971631206,9.71631206 1.65177305,10.9794326 2.72056738,12.1453901 C6.6070922,16.0319149 11.0765957,19.0439716 16.129078,21.2787234 C18.4609929,22.2503546 17.6836879,26.4283688 17.7808511,28.3716312 C17.7808511,32.7439716 17.8780142,37.2134752 18.0723404,41.6829787 C20.5014184,41.877305 35.9503546,41.4886525 41.0028369,40.5170213 C41.0028369,34.7843972 41.3914894,26.4283688 41.2943262,20.6957447 C41.1971631,17.8780142 42.0716312,17.9751773 44.0148936,16.7120567 C46.6382979,14.9631206 48.6787234,13.6028369 50.3304965,12.048227 C53.0510638,9.4248227 54.9943262,6.70425532 54.7028369,2.72056738 C54.1198582,-3.59503546 44.4035461,5.05248227 42.5574468,6.41276596 Z" id="Path" stroke="#282460" stroke-width="4"></path>
                </g>
                <g id="XMLID_2_" transform="translate(55.553191, 6.801418)" stroke="#282460" stroke-width="4">
                    <path d="M90.6815603,1.36028369 C88.058156,-0.291489362 85.2404255,1.06879433 83.0056738,2.72056738 C82.1312057,3.40070922 81.3539007,4.2751773 80.4794326,5.05248227 C78.4390071,7.19007092 76.3985816,9.4248227 74.2609929,11.3680851 C69.0141844,16.2262411 63.087234,20.0156028 56.4801418,22.6390071 C43.9460993,27.5943262 30.6648137,31.0572702 17.2262411,31.2865248 C12.2374287,31.3716312 2.40858961,26.2800213 0.603895117,33.4717543 C-1.20079938,40.6634873 17.7120567,41.1971631 25.8737589,41.3914894 C27.7198582,41.4886525 29.0801418,42.2659574 29.5659574,44.306383 C30.5375887,49.164539 30.9262411,54.3141844 30.9262411,59.2695035 C30.9262411,62.5730496 30.5375887,71.3212942 30.9262411,71.224131 C31.3148936,71.1269679 62.6014184,79.6737589 66.293617,83.7546099 C69.9858156,87.835461 65.2248227,51.2049645 65.4191489,46.8326241 C65.5163121,44.1120567 65.5163121,43.2375887 66.4879433,40.6141844 C67.4595745,38.1851064 69.4028369,36.1446809 71.3460993,34.4929078 C73.7751773,32.3553191 76.2042553,30.2177305 78.5361702,28.0801418 C82.9085106,24.193617 86.6978723,19.8212766 90.0014184,14.9631206 C91.4588652,12.8255319 93.2078014,10.2992908 93.4021277,7.5787234 C93.4021277,5.63546099 92.4304965,2.42907801 90.6815603,1.36028369 Z" id="Path"></path>
                </g>
                <g id="XMLID_1_" transform="translate(0.000000, 4.943262)" stroke="#282460" stroke-width="4">
                    <path d="M51.8851064,95.9 C52.0794326,94.9283688 46.9297872,63.9333333 49.164539,62.4758865 C51.3992908,61.0184397 64.5163121,62.7673759 70.2489362,58.7836879 C72.2893617,57.3262411 72.8723404,53.0510638 71.8035461,51.1078014 C70.6375887,48.9702128 68.4028369,48.8730496 66.2652482,48.6787234 C62.864539,48.387234 59.5609929,47.9014184 56.2574468,47.2212766 C46.1524823,45.2780142 36.241844,42.4602837 27.7886525,36.0475177 C20.987234,30.8978723 17.2950355,23.6106383 14.1858156,15.8375887 C12.3397163,11.3680851 10.6879433,6.80141844 8.35602837,2.62340426 C7.48156028,1.06879433 6.1212766,0.485815603 4.37234043,0.680141844 C2.62340426,0.874468085 1.74893617,1.94326241 1.26312057,3.49787234 C0.680141844,5.14964539 0.680141844,6.89858156 0.777304965,8.55035461 C0.971631206,12.2425532 1.45744681,15.8375887 2.23475177,19.4326241 C3.59503546,25.6510638 5.63546099,31.5780142 8.45319149,37.3106383 C10.5907801,41.6829787 13.8943262,45.5695035 15.351773,50.3304965 C23.4163121,76.1758865 20.5985816,105.616312 19.7241135,113.680851 C19.335461,116.984397 51.3992908,97.7460993 51.8851064,95.9 Z" id="Path"></path>
                </g>
            </g>
        </g>
    </g>
</svg>